<?xml version="1.0" encoding="UTF-8" standalone="no"?><!DOCTYPE svg PUBLIC "-//W3C//DTD SVG 1.1//EN" "http://www.w3.org/Graphics/SVG/1.1/DTD/svg11.dtd"><svg width="100%" height="100%" viewBox="0 0 1600 1600" version="1.1" xmlns="http://www.w3.org/2000/svg" xmlns:xlink="http://www.w3.org/1999/xlink" xml:space="preserve" xmlns:serif="http://www.serif.com/" style="fill-rule:evenodd;clip-rule:evenodd;stroke-linejoin:round;stroke-miterlimit:2;"><g id="Background"><path d="M710.937,0l250,-0c0.796,1.135 -0.196,2.98 0.599,4.115c2.082,2.971 5.265,5.004 7.687,7.706c9.12,10.173 8.111,120.924 8.111,120.924c0,0 11.079,408.13 11.142,409.896c-14.064,4.99 -12.605,-0.866 -27.539,-0.866c-120.979,0.003 -144.106,-4.925 -144.748,25.392c-0.874,41.24 52.719,20.11 174.133,27.834c3.686,54.852 0.022,54.667 3.377,109.573c0.064,1.04 2.887,107.544 3.565,122.2c-14.942,-0.029 -35.803,-1.7 -98.832,-1.093c-41.492,0.4 -41.024,51.441 -0.007,51.936c88.141,1.062 93.321,0.1 101.288,-1.379c0.386,36.238 2.805,35.968 3.035,72.189c0.533,83.981 0.574,83.244 1.524,109.127c-28.994,23.686 -78.143,65.717 -102.5,76.371c-14.318,6.263 -6.642,1.283 -103.336,1.345c-47.485,0.03 -43.415,51.579 -3.132,51.883c94.622,0.714 102.099,-3.818 110.898,6.858c13.027,15.807 46.249,29.425 75.569,6.231c1.654,-1.308 12.749,-10.086 19.953,-17.22c5.068,-5.019 7.864,-7.227 8.719,-7.25c1.148,22.045 1.445,28.806 1.598,50.778c0.575,82.217 5.969,147.512 6.371,219.025c-11.329,-0.649 -17.586,-1.008 -141.85,-0.415c-50.724,0.242 -42.633,51.756 -3.118,51.815c137.575,0.205 137.604,-0.796 146.944,-0.581c0.293,25.3 1.059,26.872 1.223,52.076c-12.344,-0.263 -12.733,16.526 -198.805,16.526c-144.946,-0 -166.655,5.882 -176.26,-9.19c-6.788,-10.652 18.892,-1528.9 64.391,-1555.808Z" style="fill:#ebe9eb;fill-opacity:1;"/><path d="M1010.938,1599.997l-440.625,0c-0.798,-0.894 0,-2.611 -0.798,-3.505c-3.232,-3.619 -4.223,-2.492 -6.704,-6.72c-7.668,-13.069 -3.752,-13.976 -2.788,-113.218c0.198,-20.426 2.371,-19.997 2.71,-40.632c2.174,-132.129 10.441,-316.207 13.149,-428.32c5.919,-0.988 5.613,-0.965 100.887,-1.759l1.578,0.261c-3.039,31.019 -10.942,309.785 -10.942,309.785c0,0 -53.168,-6.003 -57.353,22.107c-0.046,0.31 5.085,16.91 5.365,17.065c25.301,14.052 48.135,13.13 48.8,13.141l1.687,-0.103c-2.707,32.963 -7.787,156.685 -0.999,167.337c9.606,15.072 13.587,12.807 158.533,12.807c186.071,0 185.829,-0.035 198.174,0.227c0.131,13.094 0.879,31.994 -1.296,37.467c-3.173,7.987 -6.192,6.005 -9.378,14.058Z" style="fill:#d9d7da;fill-opacity:1;"/><path d="M1273.933,883.93c7.78,-5.488 172.021,-113.186 180.749,-113.701c15.18,-0.896 16.469,15.477 -8.931,38.188c-4.741,4.239 -4.067,4.905 -60.643,51.409c-3.714,3.052 -35.874,29.487 -45.967,38.7c-8.329,7.603 -59.163,50.012 -62.573,53.044c-9.106,8.096 -116.782,96.717 -145.796,123.107c-51.669,46.997 -123.981,103.328 -129.049,108.347c-7.204,7.134 -18.299,15.911 -19.953,17.22c-29.32,23.195 -62.541,9.576 -75.569,-6.231c-8.799,-10.676 -16.275,-6.144 -110.898,-6.858c-40.283,-0.304 -44.352,-51.853 3.132,-51.883c96.694,-0.062 104.864,-6.579 104.864,-6.579c0,0 294.928,-196.783 297.11,-199.824c6.164,-1.294 17.605,-11.348 67.132,-40.927c1.874,-0.863 4.516,-3.147 6.39,-4.011Z" style="fill:#6f6571;fill-opacity:1;"/><path d="M330.735,295.369c1.336,1.149 62.935,40.888 68.833,43.125c17.625,15.75 178.619,114.431 189.842,124.585c33.349,18.239 91.033,58.983 98.736,64.425c40.59,41.637 2.41,78.394 0.847,80.244c-49.757,37.369 -75.754,-9.354 -100.701,-21.666l-147.384,-126.816l-130.147,-108.775c0,0 -43.115,-36.667 -140.771,-120.427c-13.371,-11.468 -54.321,-36.837 -30.58,-49.696c9.687,-5.247 9.852,0.351 95.756,53.677c7.671,4.762 82.343,49.949 95.568,61.323Z" style="fill:#6f6571;fill-opacity:1;"/><path d="M588.294,586.082c24.946,12.312 50.944,59.035 100.701,21.666c4.174,25.084 -9.721,261.109 -6.88,301.385c-56.301,-15.154 -65.279,-0.266 -103.103,-7.392c-0.121,-16.609 8.289,-184.706 9.282,-315.658Z" style="fill:#d9d7da;fill-opacity:1;"/><path d="M597.414,335.713c11.494,-0.679 31.823,-0.691 100.953,-0.279l1.861,-0.203c-1.351,20.632 -4.462,148.979 -6.713,181.987c-0.108,1.577 -0.608,1.232 -0.599,2.993c0.038,7.57 -3.963,6.06 -4.768,7.292c-7.704,-5.441 -65.388,-46.185 -98.736,-64.425c6.927,-3.297 4.542,-5.617 4.965,-49.027c0.125,-12.838 1.514,-12.44 2.57,-25.08c0.355,-4.246 0.032,-3.942 0.468,-53.258Z" style="fill:#dad8db;fill-opacity:1;"/><path d="M1323.825,657.895c-4.384,18.028 -57.507,229.372 -57.408,231.083c-21.715,14.927 -35.253,25.197 -65.886,40.286c7.3,-23.472 70.651,-290.559 77.433,-301.585c8.931,-14.52 58.674,-22.473 45.861,30.216Z" style="fill:#857e87;fill-opacity:1;"/><path d="M333.657,297.327c0.314,-2.536 -60.461,-239.694 -60.458,-245.765c0.011,-21.557 41.29,-52.582 56.037,6.393c7.771,31.079 52.899,214.367 70.333,280.539c-23.929,-12.266 -65.912,-41.167 -65.912,-41.167Z" style="fill:#847d86;fill-opacity:0.99;"/><path d="M1322.235,912.802c56.831,-9.873 101.373,30.503 115.982,51.733c60.882,88.478 -56.287,67.343 -79.849,54.638c-51.431,-27.733 -60.683,-58.783 -68.579,-79.081c6.407,-5.74 1.326,-1.181 32.446,-27.291Z" style="fill:#aedb81;fill-opacity:1;"/><path d="M276.033,320.569c1.591,0.672 3.778,2.097 4.04,2.323c22.028,19.003 29.786,26.826 29.786,26.826c0,0 -5.411,25.004 -31.122,50.9c-50.705,51.07 -121.246,44.588 -131.262,26.478c-11.712,-21.178 26.379,-112.762 128.557,-106.526Z" style="fill:#aeda81;fill-opacity:1;"/><path d="M603.539,154.426c50.616,0.777 101.936,0.428 101.936,0.428c0,0 -4.233,105.662 -4.082,129.149c-83.542,0.114 -83.476,-0.183 -101.043,-0.861c-1.898,-34.528 2.785,-79.363 3.189,-128.716Z" style="fill:#dad8db;fill-opacity:1;"/><path d="M579.011,901.74c37.824,7.126 46.802,-7.762 103.103,7.392l1.28,0.699c-0.212,1.589 1.803,9.038 1.591,10.627c-1.047,7.852 -4.266,71.824 -6.777,85.714c-95.274,0.795 -96.408,0.441 -102.327,1.43c1.501,-15.754 4.368,-84.752 3.13,-105.862Z" style="fill:#5d5360;fill-opacity:1;"/><path d="M620.241,-3.857c30.208,-0 60.488,3.857 90.696,3.857c-0.541,8.229 -5.456,82.938 -3.331,103.032l-2.738,0.21c-70.131,-0.014 -70.039,0.331 -99.128,-1.587c6.501,-83.512 -2.604,-75.181 14.501,-105.511Z" style="fill:#dad8db;fill-opacity:1;"/><path d="M751.562,696.769c152.611,-0 163.107,-3.65 166.76,20.162c5.873,38.273 -35.642,31.354 -101.135,31.354c-69.715,-0 -103.083,5.633 -104.197,-24.807c-0.059,-1.611 -0.397,-10.829 7.358,-18.756c11.864,-12.127 13.997,-7.118 31.215,-7.953Z" style="fill:#6f6571;"/><path d="M682.011,909.103c41.305,19.511 44.056,40.979 94.55,45.711c21.786,2.042 65.382,-7.663 64.755,27.922c-0.179,10.143 -9.173,21.105 -20.786,23.052c-7.056,1.183 -121.616,0.732 -140.651,0.451l-1.838,-0.005c0.827,-15.678 3.758,-95.542 3.97,-97.131Z" style="fill:#6f6571;"/><path d="M1211.592,1005.566c1.014,1.475 13.668,13.914 21.067,21.138c6.325,6.175 6.097,6.262 78.048,78.214c37.896,37.896 1.966,59.797 -21.488,52.514c-13.264,-4.119 -65.985,-68.3 -120.602,-115.769c2.975,-3.618 33.302,-30.582 42.975,-36.097Z" style="fill:#847e87;fill-opacity:1;"/><path d="M707.606,103.032c0,0 162.64,0.102 165.979,1.08c16.243,4.757 25.16,21.419 15.806,38.276c-8.29,14.94 -12.86,12.21 -184.673,12.518c0.711,-4.072 0.782,-51.375 0.782,-51.375l2.107,-0.499Z" style="fill:#6f6571;"/><path d="M386.161,413.192c0,0 24.947,17.333 40.401,33.553c0.319,0.334 4.924,4.133 4.924,4.133c0,0 -9.825,10.164 -12.373,12.705c-97.208,96.923 -93.111,91.951 -98.877,97.24c-39.473,23.233 -62.358,-15.256 -34.144,-43.481c95.877,-95.912 100.068,-104.151 100.068,-104.151Z" style="fill:#847d86;fill-opacity:1;"/><path d="M1018.412,1445.577c0.415,26.467 1.925,51.64 1.925,51.64c0,0 -9.318,-0.035 -146.893,-0.24c-39.515,-0.059 -47.605,-51.572 3.118,-51.815c124.264,-0.593 130.52,-0.235 141.85,0.415Z" style="fill:#6f6571;fill-opacity:1;"/><path d="M989.019,541.686c0.396,27.949 1.581,25.144 1.303,53.316c-121.414,-7.724 -175.007,13.406 -174.133,-27.834c0.642,-30.317 23.769,-25.389 144.748,-25.392c14.934,-0 14.468,-0.076 28.082,-0.09Z" style="fill:#6f6571;"/><path d="M667.405,1315.89c128.028,0.26 143.339,-3.785 147.607,19.804c0.496,2.744 4.371,24.161 -16.908,30.485c-9.958,2.959 -10.167,0.99 -130.746,1.854l-3.141,0.17c0.972,-4.079 1.417,-28.708 3.189,-52.314Z" style="fill:#6f6571;"/><path d="M997.444,824.863c0,0 2.443,24.721 2.27,51.375c-7.968,1.479 -13.148,2.441 -101.288,1.379c-41.017,-0.494 -41.485,-51.536 0.007,-51.936c63.029,-0.607 99.012,-0.818 99.012,-0.818Z" style="fill:#6f6571;"/><path d="M605.74,101.655c29.088,1.919 100.992,1.548 100.992,1.548c0,0 -0.729,47.633 -1.44,51.705c-50.75,-0.106 -51.137,0.296 -101.753,-0.48c-0.077,-20.294 0.077,-20.013 0.673,-40.38c0.116,-1.371 0.641,-7.586 0.788,-9.323l0.741,-3.069Z" style="fill:#5d5360;"/><path d="M600.35,283.142c17.566,0.677 17.501,0.974 101.043,0.861c-0.328,4.109 2.468,4.179 -1.104,51.476c-69.13,-0.412 -91.38,-0.445 -102.874,0.234c0.185,-9.305 1.397,-37.185 1.397,-37.185c0,0 1.026,-10.257 1.539,-15.386Z" style="fill:#5d5360;"/><path d="M748.437,1496.981c-2.175,-0.004 -66.66,8.461 -61.003,-29.609c3.388,-22.797 24.615,-23.686 73.505,-22.187c41.613,1.276 34.693,50.773 3.224,51.474c-1.258,0.028 -1.165,0.024 -15.726,0.323Z" style="fill:#6f6571;"/><path d="M839.209,284.221c1.522,-0.03 55.894,-8.225 54.037,26.773c-1.667,31.418 -48.706,24.205 -51.018,24.172c-27.834,-0.393 -40.536,-41.89 -3.019,-50.945Z" style="fill:#6f6571;"/><path d="M701.393,284.003c16.737,0.047 60.142,-6.891 62.668,23.81c2.896,35.199 -52.754,27.486 -62.586,27.546l-1.555,0.054c0,0 1.146,-47.301 1.473,-51.41Z" style="fill:#6e6470;"/><path d="M667.405,1315.89c0,0 -0.712,48.222 -1.685,52.301c-0.664,-0.011 -58.368,7.818 -55.793,-29.252c2.036,-29.312 45.677,-22.974 57.477,-23.049Z" style="fill:#5d5360;"/><g id="Sharp"><path id="Sharp1" serif:id="Sharp" d="M691.924,-17.102l282.113,3.775c0,0 1.351,59.867 1.901,84.212c0.465,20.62 -286.88,19.998 -286.382,1.227c0.644,-24.254 2.368,-89.214 2.368,-89.214Z" style="fill:#ebe9eb;fill-opacity:1;"/><path id="Sharp2" serif:id="Sharp" d="M1027.941,1676.747l-473.021,3.159l5.147,-159.147c0,0 98.049,4.025 104.838,14.677c9.606,15.072 13.587,12.807 158.533,12.807c186.071,0 185.829,-0.035 198.174,0.227c0.131,13.094 6.33,128.276 6.33,128.276Z" style="fill:#d9d7da;fill-opacity:1;"/><path id="Sharp3" serif:id="Sharp" d="M611.166,-27.969l100.006,-0.664c0,0 -5.69,111.572 -3.566,131.666l-2.738,0.21c-70.131,-0.014 -70.039,0.331 -99.128,-1.587c0.948,-21.156 1.83,-41.641 2.595,-59.842c1.705,-40.564 2.831,-69.781 2.831,-69.781Z" style="fill:#dad8db;fill-opacity:1;"/></g></g></svg>